<svg width="150" height="150" viewBox="0 0 150 150" fill="none" xmlns="http://www.w3.org/2000/svg">
<path d="M137.229 78.8643C136.456 69.0821 133.784 61.8721 128.019 62.0508C127.971 62.0512 127.924 62.0633 127.882 62.0859C127.84 62.1084 127.804 62.1409 127.778 62.1804C127.751 62.22 127.735 62.2654 127.73 62.3127C127.725 62.3601 127.731 62.4079 127.749 62.4522C129.246 66.1407 130.585 73.2627 130.436 79.4649C130.439 79.5426 130.411 79.6183 130.358 79.6755C130.305 79.7326 130.232 79.7665 130.154 79.7696C130.077 79.7727 130.001 79.7448 129.944 79.692C129.887 79.6393 129.853 79.566 129.85 79.4883C129.208 73.2745 127.77 67.4209 125.098 62.0772C120.075 52.0027 112.065 43.7234 102.163 38.3694C92.2604 33.0153 80.9469 30.8472 69.7666 32.161C58.5863 33.4748 48.0836 38.2065 39.692 45.7103C31.3004 53.214 25.4286 63.1244 22.8779 74.0889C22.8273 74.322 22.7068 74.5341 22.5325 74.697C22.3582 74.8598 22.1383 74.9655 21.9023 75L19.3681 75.3575C14.3291 76.0606 11.4873 85.5821 13.0107 96.5977C14.5341 107.613 19.8955 115.992 24.9345 115.289L28.8134 114.747C29.0369 114.717 29.2643 114.751 29.4686 114.847C29.6728 114.943 29.8451 115.095 29.9648 115.286C35.7205 124.341 44.0119 131.503 53.8071 135.881C63.6023 140.259 74.4688 141.66 85.0541 139.909C95.6394 138.158 105.476 133.333 113.34 126.034C121.204 118.736 126.748 109.285 129.281 98.8594C129.339 98.6126 129.476 98.3913 129.67 98.2286C129.864 98.0659 130.106 97.9706 130.359 97.9571L131.648 97.8868C136.087 97.1455 138.02 88.7373 137.229 78.8643ZM27.6855 79.2247C27.6496 79.1626 27.6378 79.0895 27.6521 79.0192C27.6665 78.949 27.7062 78.8864 27.7636 78.8435C27.821 78.8005 27.8922 78.7801 27.9636 78.7861C28.0351 78.7921 28.1019 78.8241 28.1513 78.876C30.9726 81.8057 34.0839 86.9766 34.9834 93.4834C35.9326 100.236 34.3271 106.726 32.3086 110.438C32.2735 110.499 32.2176 110.545 32.1511 110.568C32.0846 110.592 32.0119 110.59 31.9464 110.564C31.8809 110.538 31.827 110.489 31.7945 110.427C31.762 110.364 31.7531 110.292 31.7695 110.224C32.9619 105.993 33.2812 100.313 32.4345 94.1866C31.6142 88.2334 29.8828 82.9747 27.6855 79.2247ZM80.0595 111.39C78.9404 111.388 77.8613 110.973 77.0284 110.226C76.1956 109.479 75.6674 108.45 75.5449 107.338C75.4471 106.426 75.6282 105.505 76.0644 104.698C76.5006 103.891 77.1712 103.235 77.9878 102.817C78.8044 102.399 79.7286 102.239 80.6384 102.357C81.5481 102.475 82.4006 102.867 83.0833 103.479C83.7661 104.092 84.2469 104.897 84.4625 105.789C84.678 106.681 84.618 107.617 84.2904 108.474C83.9629 109.331 83.3831 110.068 82.6278 110.589C81.8724 111.109 80.9769 111.389 80.0595 111.39ZM104.036 110.007C103.148 110.05 102.267 109.829 101.504 109.372C100.741 108.915 100.13 108.243 99.749 107.439C99.3678 106.636 99.2331 105.737 99.3619 104.857C99.4906 103.977 99.8771 103.155 100.472 102.495C101.068 101.834 101.845 101.365 102.707 101.145C103.569 100.926 104.477 100.967 105.315 101.263C106.154 101.559 106.886 102.096 107.42 102.808C107.953 103.519 108.264 104.373 108.313 105.261C108.375 106.457 107.959 107.629 107.157 108.519C106.355 109.409 105.232 109.944 104.036 110.007Z" fill="#0D2986"/>
<path d="M48.4894 20.5078C48.5061 20.523 48.5166 20.5439 48.5187 20.5664C48.548 20.625 48.5773 20.6543 48.6066 20.7129V20.7422C48.7428 21.07 48.9785 21.3467 49.2804 21.5332C49.8664 21.9727 50.7453 22.2363 51.8 22.4121C52.9549 22.5697 54.1222 22.6188 55.2863 22.5586C55.5703 22.5537 55.8539 22.5341 56.1359 22.5C56.0187 22.3828 55.9015 22.2363 55.7843 22.1191H55.4035C54.2644 22.1587 53.1244 22.0702 52.005 21.8555C51.1185 21.7191 50.2759 21.378 49.5441 20.8594C49.3931 20.7377 49.2556 20.6002 49.1339 20.4492C49.0753 20.2284 49.0753 19.9962 49.1339 19.7754C49.2804 19.1016 49.8371 18.3691 50.7453 17.6074C51.7287 16.8052 52.8 16.1172 53.9386 15.5566C54.2023 15.4395 54.4367 15.293 54.7003 15.1758C54.7296 15.1465 54.7882 15.1465 54.8468 15.1172C54.6069 16.1265 54.5869 17.1756 54.7882 18.1934C55.4621 21.6797 58.1867 24.1406 61.5851 24.2285L62.757 31.3477L66.4777 30.4688L65.3058 23.6426C68.4699 22.2949 70.0812 18.9258 69.4074 15.4395C69.2169 14.4445 68.8283 13.498 68.2648 12.6563C66.7121 12.4219 63.6945 12.4219 59.7101 13.2715C60.0324 13.1836 60.3253 13.0664 60.6476 12.9785C62.7105 12.3987 64.817 11.9872 66.9464 11.748C67.1222 11.7187 67.298 11.7188 67.4738 11.6895L68.4992 11.6016H68.675C69.7302 11.5385 70.7889 11.5679 71.839 11.6895C72.4478 11.7613 73.047 11.8988 73.6261 12.0996C73.4472 12.379 73.3554 12.7054 73.3625 13.0371C73.3651 13.4173 73.4886 13.7868 73.7151 14.0923C73.9415 14.3977 74.2592 14.6233 74.6222 14.7363C74.4362 15.0235 74.2306 15.2976 74.007 15.5566C73.7454 15.8517 73.4614 16.1259 73.1574 16.377C72.8351 16.6406 72.4836 16.9043 72.132 17.168L70.2277 18.2813L70.1398 18.7207C70.162 18.7176 70.1826 18.7073 70.1984 18.6914L72.6593 17.3145C73.0109 17.0801 73.3625 16.8457 73.6554 16.6113C73.9875 16.3611 74.3008 16.0869 74.5929 15.791C74.844 15.5323 75.0788 15.2584 75.2961 14.9707L75.3839 14.7949C75.8155 14.7426 76.2136 14.5357 76.5044 14.2125C76.7953 13.8894 76.9592 13.4718 76.966 13.0371C76.9675 12.802 76.9224 12.5689 76.8331 12.3514C76.7439 12.1338 76.6123 11.9362 76.446 11.77C76.2798 11.6037 76.0821 11.4721 75.8646 11.3829C75.6471 11.2936 75.414 11.2484 75.1789 11.25C74.8939 11.259 74.6142 11.3289 74.3585 11.4551C73.6107 11.0519 72.7974 10.7841 71.9562 10.6641C70.4554 10.4201 68.9304 10.361 67.4152 10.4883C67.209 10.4933 67.0034 10.5129 66.8 10.5469C66.6064 10.5809 66.4105 10.6005 66.214 10.6055C64.6008 9.53925 62.6332 9.14993 60.7355 9.52148C59.6394 9.7329 58.6035 10.1839 57.702 10.8424C56.8005 11.5008 56.0556 12.3503 55.5207 13.3301C55.1398 13.4766 54.7589 13.6523 54.4074 13.8281C54.2023 13.916 54.0265 14.0039 53.8214 14.0918C52.3483 14.7898 50.9781 15.6868 49.7492 16.7578C48.841 17.6074 48.3136 18.4277 48.1964 19.1895C48.1299 19.592 48.2022 20.0053 48.4015 20.3613C48.4372 20.406 48.4668 20.4553 48.4894 20.5078Z" fill="#0D2986"/>
</svg>
